<svg width="64" height="56" viewBox="0 0 64 56" fill="none" xmlns="http://www.w3.org/2000/svg">
<path fill-rule="evenodd" clip-rule="evenodd" d="M16.0018 32.0052C16.0018 29.7965 17.7936 28.0048 20.0022 28.0048C22.2109 28.0048 24.0015 29.7965 24.0015 32.0052C24.0015 34.2139 22.2109 36.0056 20.0022 36.0056C17.7936 36.0056 16.0018 34.2139 16.0018 32.0052ZM40.0009 32.0052C40.0009 29.7965 41.7927 28.0048 44.0013 28.0048C46.21 28.0048 48.0018 29.7965 48.0018 32.0052C48.0018 34.2139 46.21 36.0056 44.0013 36.0056C41.7927 36.0056 40.0009 34.2139 40.0009 32.0052ZM40.1958 40.5529C41.2281 39.7415 42.721 39.9163 43.5324 40.9486C44.3439 41.9809 44.1691 43.4738 43.1368 44.2853C40.269 46.5459 35.8965 48.0058 32.0048 48.0058C28.1142 48.0058 23.7417 46.5459 20.8692 44.2853C19.8369 43.4738 19.6621 41.9809 20.4735 40.9486C21.2849 39.9163 22.7779 39.7416 23.8102 40.5529C25.4625 41.8534 28.7295 43.2529 32.0047 43.2529C35.2812 43.2529 38.5493 41.8533 40.2005 40.5529H40.1958ZM64 24.0055C64 19.5846 60.42 16.0047 56.0003 16.0047C52.992 16.0047 50.3758 17.6653 49.0081 20.1173C44.8966 17.8696 39.8875 16.4133 34.4284 16.0779L39.2 5.35801L48.3347 7.99421C49.1592 10.3269 51.3785 12.0018 53.9958 12.0018C57.3077 12.0018 59.9959 9.31351 59.9959 6.00171C59.9959 2.68981 57.3077 0.00170898 53.9959 0.00170898C51.7116 0.00170898 49.7226 1.27721 48.7115 3.15871L38.5315 0.217709C37.3917 -0.110591 36.1835 0.449309 35.7027 1.53351L29.2184 16.0955C23.8987 16.4723 19.0147 17.9085 14.9918 20.1113C13.6229 17.6593 11.0079 15.9987 7.99958 15.9987C3.57858 15.9987 -0.00012207 19.5787 -0.00012207 23.9996C-0.00012207 27.2677 1.96288 30.08 4.77038 31.319C4.26728 32.819 3.99798 34.3863 3.99798 35.9997C3.99798 47.0431 16.5332 55.9984 31.9976 55.9984C47.462 55.9984 59.9972 47.0432 59.9972 35.9997C59.9972 34.3875 59.7291 32.8202 59.2247 31.319C62.037 30.08 63.9953 27.2677 63.9953 23.9996L64 24.0055ZM53.9995 3.75881C55.2444 3.75881 56.2531 4.76631 56.2531 6.01121C56.2531 7.25501 55.2444 8.26361 53.9995 8.26361C52.7558 8.26361 51.7471 7.25501 51.7471 6.01121C51.7471 4.76631 52.7558 3.75881 53.9995 3.75881ZM4.00148 24.0055C4.00148 21.8015 5.79688 20.0051 8.00078 20.0051C9.59778 20.0051 10.9738 20.9405 11.6174 22.2965C9.52438 23.8815 7.79408 25.7135 6.51378 27.7166C5.04098 27.1237 4.00148 25.685 4.00148 24.0055ZM32.0012 51.2562C19.1612 51.2562 8.74968 44.4294 8.74968 36.0044C8.74968 27.5795 19.1565 20.7515 32.0012 20.7515C44.8399 20.7515 55.2515 27.5795 55.2515 36.0045C55.2515 44.4293 44.8447 51.2562 32.0012 51.2562ZM57.4872 27.7165C56.207 25.7086 54.4766 23.8815 52.3837 22.2964C53.0274 20.9452 54.4034 20.005 56.0003 20.005C58.2043 20.005 60.0007 21.8015 60.0007 24.0055C60.0007 25.685 58.96 27.126 57.4872 27.7165Z" fill="#545454"/>
<path d="M6 36C6 26.0589 14.0589 18 24 18H40C49.9411 18 58 26.0589 58 36C58 45.9411 49.9411 54 40 54H24C14.0589 54 6 45.9411 6 36Z" fill="#545454"/>
<rect x="52" y="20" width="9" height="8" fill="#545454"/>
<rect x="52" y="20" width="9" height="8" fill="#545454"/>
<rect x="4" y="20" width="9" height="8" fill="#545454"/>
<rect x="4" y="20" width="9" height="8" fill="#545454"/>
<rect x="16" y="28" width="8" height="8" rx="4" fill="white"/>
<rect x="40" y="28" width="8" height="8" rx="4" fill="white"/>
<path d="M22.5 42.5C25.5 45 34 48 41.5 42.5" stroke="white" stroke-width="5" stroke-linecap="round"/>
</svg>
